<svg version="1.1" id="Layer_1" xmlns="http://www.w3.org/2000/svg" xmlns:xlink="http://www.w3.org/1999/xlink" x="0px" y="0px"
	 width="100%" viewBox="0 0 160 161" enable-background="new 0 0 160 161" xml:space="preserve">
<path fill="#FCFCFC" opacity="1.000000" stroke="none" 
	d="
M161.000000,113.000000 
	C161.000000,129.303635 161.000000,145.607269 161.000000,161.940460 
	C107.666649,161.940460 54.333313,161.940460 1.000000,161.940460 
	C1.000000,151.566391 1.000000,141.251862 1.382906,130.570709 
	C3.609989,130.462326 5.454167,130.720566 7.445188,130.999344 
	C7.764935,128.663116 8.000002,126.945610 8.275404,124.933395 
	C10.386840,124.933395 12.187631,125.004257 13.981152,124.920143 
	C19.397657,124.666122 21.041330,122.661629 21.022736,116.453033 
	C21.004725,110.438660 19.147964,108.079620 13.892004,107.907944 
	C9.600251,107.767754 5.297741,107.956879 1.000000,108.000000 
	C1.000000,72.429909 1.000000,36.859814 1.000000,1.000000 
	C19.019859,1.000000 37.041271,1.000000 55.535393,1.245808 
	C56.008106,1.491617 55.987373,1.982863 55.614964,2.105251 
	C50.482513,3.287293 45.446892,3.828155 42.844826,8.863220 
	C42.901577,8.882999 42.896088,8.762925 42.618095,8.810675 
	C41.972202,9.233788 41.604305,9.609151 41.067497,10.116713 
	C40.898590,10.248911 40.882019,10.677571 40.568722,10.817039 
	C37.948380,15.633268 35.641335,20.310030 33.165901,25.361217 
	C32.908375,26.823652 32.819237,27.911659 32.398727,29.087460 
	C32.285950,30.783426 32.504547,32.391602 32.808765,34.461254 
	C32.971226,50.279415 33.048061,65.636101 33.049332,81.303101 
	C33.275311,82.097420 33.576855,82.581413 33.884876,83.316727 
	C33.610077,83.979149 33.328793,84.390251 33.269733,85.124146 
	C35.985012,85.333366 38.478065,85.219788 41.364014,85.027634 
	C43.550323,84.289246 45.343746,83.629433 47.338799,82.814651 
	C47.390572,82.099358 47.240711,81.539047 46.942101,80.966255 
	C46.793346,80.953781 46.504784,81.030396 46.583382,80.566788 
	C46.663769,59.091400 46.665565,38.079609 46.812660,16.851803 
	C46.993382,16.465876 47.028797,16.295969 47.423779,16.043989 
	C48.253468,15.829977 48.723587,15.698037 49.646641,15.617420 
	C63.661785,15.551374 77.223999,15.434008 91.080811,15.492428 
	C91.583580,15.762918 91.791756,15.857622 92.003876,16.299274 
	C92.849113,17.434244 93.690407,18.222263 94.644020,19.461040 
	C94.805946,24.270784 94.855553,28.629772 94.709419,33.188583 
	C94.349426,33.924129 94.185173,34.459862 93.798088,35.104019 
	C93.296806,35.412102 93.103111,35.674351 92.609909,36.121941 
	C91.168808,36.387119 90.111961,36.529568 88.668518,36.522820 
	C86.903992,36.385353 85.526062,36.397087 83.693771,36.271564 
	C79.767105,36.229950 76.294792,36.325596 72.522278,36.403244 
	C71.838478,36.490276 71.454880,36.595314 70.780876,36.566185 
	C70.065163,36.462040 69.639862,36.492062 69.159317,36.139519 
	C68.784492,34.980370 68.464897,34.203781 67.680771,32.298424 
	C66.680573,35.043377 66.089172,36.666416 65.409081,38.256210 
	C65.133614,38.240437 64.946045,38.274036 64.380661,38.242119 
	C63.001484,39.014210 61.999313,39.867954 60.746002,40.913406 
	C59.944592,41.736794 59.394318,42.368465 58.533138,43.054787 
	C57.825165,43.767696 57.428097,44.425953 56.949783,45.373951 
	C56.282505,46.183201 55.696472,46.702713 54.908661,46.933609 
	C53.804234,47.429638 52.901588,48.214283 51.629082,49.074814 
	C48.247715,52.833149 51.231400,52.839481 53.731316,53.612335 
	C53.664097,62.937359 53.579113,71.803383 53.331108,81.056732 
	C53.481026,82.708893 53.793957,83.973732 54.208229,85.415047 
	C54.500980,85.798050 54.732735,85.937622 55.055145,86.337570 
	C56.737171,86.778130 58.368889,86.891357 60.093681,87.399826 
	C60.854939,88.189537 61.520344,88.922073 62.191727,88.927589 
	C71.835487,89.006897 81.480850,89.044670 91.123161,88.906219 
	C92.090805,88.892326 93.041061,87.667442 94.336990,87.000870 
	C95.449516,86.666222 96.224457,86.335289 97.000381,85.737061 
	C97.001595,85.291573 97.001808,85.113380 97.378891,84.810165 
	C100.168602,84.483116 102.581436,84.281075 105.282516,84.172684 
	C105.757141,84.344414 105.943497,84.422508 106.369881,84.651459 
	C107.409920,84.519524 108.209938,84.236732 109.195114,83.797668 
	C109.380272,83.641396 109.853279,83.530022 109.853279,83.530022 
	C109.853279,83.530022 110.282310,83.758301 110.680984,83.807083 
	C111.686638,83.455009 112.293625,83.054161 113.050980,82.386604 
	C114.141006,81.423218 115.080666,80.726532 116.309212,80.034790 
	C116.790764,80.036552 116.983421,80.033386 117.336868,79.954819 
	C117.701942,79.755745 117.883316,79.604591 118.010178,79.269806 
	C117.978561,79.113663 117.925987,78.799408 118.144211,78.834579 
	C118.362442,78.869743 118.799835,78.933968 119.069870,78.840546 
	C119.571251,78.451668 119.802582,78.156212 120.155884,77.617096 
	C120.543488,76.924911 120.809128,76.476379 121.369980,75.874359 
	C123.542572,72.380524 125.419952,69.040169 127.556435,65.441498 
	C128.041794,64.751968 128.268051,64.320770 128.627472,63.679611 
	C128.790054,63.140251 128.819458,62.810852 128.792969,62.093742 
	C128.767166,60.142487 128.797256,58.578941 128.933411,56.556362 
	C128.997131,38.401375 128.954788,20.705421 128.992432,2.751429 
	C129.055115,2.314122 129.037827,2.134853 129.035706,1.716252 
	C129.050858,1.476920 129.000000,1.000000 129.000000,1.000000 
	C139.633224,1.000000 150.266464,1.000000 161.000000,1.000000 
	C161.000000,36.687504 161.000000,72.375092 160.596741,108.384094 
	C154.027969,108.300819 147.862457,107.896133 141.585480,107.484131 
	C141.585480,109.874924 141.585480,111.382339 141.585480,112.837868 
	C143.748260,113.087547 145.495422,113.289246 147.764923,113.551247 
	C147.764923,119.468208 147.764923,125.033791 147.764923,130.650177 
	C149.952789,130.650177 151.564743,130.650177 153.867096,130.650177 
	C153.867096,124.730202 153.867096,119.023499 153.867096,113.000000 
	C156.704407,113.000000 158.852203,113.000000 161.000000,113.000000 
M43.407551,155.766312 
	C43.407551,155.766312 43.748203,156.026566 43.829464,156.111252 
	C43.829464,156.111252 43.930328,156.325851 44.357586,157.090561 
	C52.058208,159.615875 54.977085,157.611633 55.074661,149.753998 
	C55.084934,148.926926 55.577641,147.891159 55.235825,147.313736 
	C54.109032,145.410263 52.818207,142.286148 51.377346,142.165009 
	C48.518841,141.924744 44.134365,139.568039 42.521122,145.647522 
	C42.596260,148.459473 42.671394,151.271439 42.753952,154.625717 
	C42.978096,154.863159 43.202240,155.100586 43.407551,155.766312 
M110.470505,154.331039 
	C110.087402,153.411362 109.704300,152.491699 109.321198,151.572021 
	C108.902847,151.712555 108.484505,151.853088 108.066154,151.993637 
	C108.555901,153.471542 109.045647,154.949448 110.007935,157.035248 
	C118.130089,159.560623 120.801102,157.605225 119.519119,150.080597 
	C117.473106,150.080597 115.427094,150.080597 113.381081,150.080597 
	C113.310265,150.449127 113.239449,150.817657 113.168633,151.186172 
	C114.881401,151.625916 116.594162,152.065659 118.477753,152.549240 
	C117.312706,157.733643 113.960480,156.217621 110.470505,154.331039 
M94.697273,146.789627 
	C97.592934,150.671219 100.488602,154.552826 103.384270,158.434418 
	C103.729240,158.158279 104.074219,157.882156 104.419189,157.606033 
	C104.419189,152.450989 104.419189,147.295944 104.419189,142.140915 
	C103.986450,142.122818 103.553703,142.104721 103.120964,142.086639 
	C102.944138,145.640594 102.767311,149.194550 102.597115,152.615311 
	C99.684448,149.725342 96.995300,147.057175 94.141319,143.717117 
	C93.894577,142.965210 93.647842,142.213303 93.401100,141.461395 
	C93.157158,141.819626 92.913223,142.177841 92.669281,142.536057 
	C92.669281,147.564697 92.669281,152.593353 92.669281,157.621994 
	C93.100342,157.601746 93.531403,157.581497 93.962463,157.561234 
	C93.962463,154.003159 93.962463,150.445068 94.697273,146.789627 
M125.047920,149.619781 
	C126.300346,149.996033 127.579468,150.302231 128.798172,150.766907 
	C130.203110,151.302612 131.554703,151.978210 132.929459,152.593079 
	C132.208115,154.069321 131.486771,155.545563 130.316986,157.939560 
	C131.995804,157.309448 134.337967,156.918930 134.391266,156.323547 
	C134.593918,154.059769 134.057007,151.729797 134.077637,148.754532 
	C134.173340,147.667679 134.156479,146.556152 134.388046,145.499069 
	C134.876892,143.267639 134.456696,141.105011 131.956039,141.262604 
	C129.063217,141.444901 126.138947,142.445023 123.486031,143.655029 
	C123.101410,143.830460 124.151939,147.152390 125.047920,149.619781 
M79.794189,142.048370 
	C76.841469,141.568008 73.888741,141.087662 70.858025,140.594620 
	C70.858025,146.972488 70.858025,152.586700 70.858025,157.750961 
	C73.379562,157.543808 76.345207,157.346146 79.298241,157.030548 
	C80.224876,156.931519 81.117607,156.515244 82.531097,155.648468 
	C82.765190,152.888931 83.426437,150.073410 83.074951,147.390594 
	C82.860252,145.751831 81.088516,144.317047 79.794189,142.048370 
M110.963722,107.946892 
	C106.391747,107.946892 101.819778,107.946892 96.991714,107.946892 
	C96.991714,115.021530 96.983513,121.481758 97.002220,127.941917 
	C97.004524,128.737030 97.150475,129.531723 97.284691,130.875656 
	C99.562927,130.875656 101.679352,130.882935 103.795708,130.874481 
	C117.145195,130.821106 118.587158,129.238831 117.945290,115.893257 
	C117.744675,111.722130 116.109016,108.917686 110.963722,107.946892 
M24.086143,109.800591 
	C24.086143,116.730515 24.086143,123.660439 24.086143,130.488312 
	C26.562471,130.488312 28.282885,130.488312 30.453568,130.488312 
	C30.453568,127.485176 30.453568,124.884094 30.453568,122.114334 
	C33.168652,122.114334 35.422710,122.114334 38.255127,122.114334 
	C38.255127,125.066139 38.255127,127.806099 38.255127,130.942719 
	C40.587292,130.831879 42.319370,130.749573 44.034008,130.668076 
	C44.034008,122.819878 44.034008,115.452164 44.034008,107.764603 
	C41.875381,107.899376 40.157906,108.006615 38.362034,108.118744 
	C38.210720,111.074219 38.086182,113.506714 37.952286,116.122055 
	C35.325649,116.122055 33.066345,116.122055 30.502260,116.122055 
	C30.327471,113.329750 30.166357,110.755905 29.957586,107.420715 
	C27.752262,107.971924 25.974129,108.416359 24.086143,109.800591 
M131.310196,107.423355 
	C129.320740,108.281082 126.093636,108.665337 125.553413,110.077484 
	C123.047470,116.628036 121.286720,123.463669 119.259155,130.197235 
	C119.750557,130.669846 120.241959,131.142456 120.733360,131.615082 
	C122.568588,130.411926 124.275604,128.553558 126.269897,128.163345 
	C129.071320,127.615189 132.164886,127.777046 134.983505,128.360214 
	C137.049637,128.787704 138.874725,130.380188 140.807251,131.453461 
	C141.188538,130.983429 141.569809,130.513397 141.951096,130.043365 
	C139.994797,123.572830 138.195023,117.047318 135.957535,110.675514 
	C135.477844,109.309464 133.413452,108.499878 131.310196,107.423355 
M51.109791,115.616920 
	C49.718094,120.502625 48.326397,125.388329 46.878849,130.470093 
	C50.186287,131.070786 52.403069,131.541733 54.360840,128.071640 
	C55.016956,126.908676 61.470978,126.999718 62.240131,128.305344 
	C64.335861,131.862854 66.372337,131.029099 69.479431,130.204880 
	C67.525444,123.545403 65.829422,117.160103 63.749111,110.902573 
	C62.505936,107.163109 56.267799,105.964279 53.850632,108.992630 
	C52.573467,110.592720 52.170685,112.890732 51.109791,115.616920 
M75.111969,114.830963 
	C75.111969,120.074776 75.111969,125.318588 75.111969,130.490143 
	C77.573158,130.490143 79.281952,130.490143 81.480972,130.490143 
	C81.480972,124.540451 81.480972,118.970406 81.480972,113.403008 
	C83.888542,113.174835 85.803459,112.993355 87.717804,112.811920 
	C87.717804,111.061943 87.717804,109.662094 87.717804,108.134796 
	C81.398361,108.134796 75.360046,108.134796 68.929245,108.134796 
	C69.026886,109.972794 69.107384,111.488045 69.167236,112.614662 
	C71.520668,113.144928 73.228058,113.529633 75.111969,114.830963 
M28.925295,143.835999 
	C28.613533,143.223007 28.301773,142.610001 27.314835,140.669449 
	C27.314835,147.335297 27.314835,152.456238 27.314835,157.577179 
	C27.670351,157.609818 28.025869,157.642441 28.381386,157.675079 
	C28.731592,155.398224 29.081800,153.121368 29.423620,150.899048 
	C32.013100,150.899048 34.275906,150.899048 36.648289,150.899048 
	C36.984158,153.366760 37.283741,155.567871 37.583324,157.768982 
	C37.923641,157.701645 38.263954,157.634293 38.604271,157.566940 
	C38.604271,152.438507 38.604271,147.310074 38.604271,142.181625 
	C38.229904,142.157883 37.855537,142.134125 37.481171,142.110382 
	C37.196312,144.092758 36.911453,146.075150 36.566025,148.479034 
	C33.764095,147.238449 28.941225,151.456161 28.925295,143.835999 
M58.551956,155.913452 
	C59.278625,156.155823 60.005299,156.398193 60.731964,156.640564 
	C60.731964,151.751999 60.731964,146.863449 60.731964,141.974884 
	C59.979828,141.989426 59.227692,142.003967 58.475555,142.018509 
	C58.475555,146.351318 58.475555,150.684113 58.551956,155.913452 
M110.172562,145.699631 
	C109.868851,145.204529 109.565147,144.709412 109.261436,144.214310 
	C108.940239,144.898254 108.619041,145.582199 108.297844,146.266144 
	C108.859604,146.396774 109.421364,146.527390 110.172562,145.699631 
M108.362679,87.524605 
	C108.155708,87.471031 107.948730,87.417458 107.741760,87.363892 
	C107.874741,87.495209 108.007721,87.626526 108.362679,87.524605 
M50.584240,56.516495 
	C50.584240,56.516495 50.477318,56.579426 50.584240,56.516495 
M128.584229,73.516518 
	C128.584229,73.516518 128.477310,73.579475 128.584229,73.516518 
z"/>
<path fill="#FDF7F6" opacity="1.000000" stroke="none" 
	d="
M108.000000,1.000000 
	C110.042320,1.000000 112.084633,1.000000 114.602692,1.335080 
	C115.129219,1.889263 115.180000,2.108367 115.225143,2.739666 
	C115.319092,4.800757 115.418686,6.449653 115.422424,8.550830 
	C115.369034,27.642984 115.411499,46.282856 115.370598,65.200241 
	C115.364082,65.654968 115.440941,65.832199 115.451187,66.338547 
	C115.426651,67.111282 115.468704,67.554909 115.363892,68.340401 
	C114.466866,69.498802 113.716713,70.315323 112.505188,71.057816 
	C99.364395,71.025963 86.684967,71.068138 73.637146,70.990128 
	C72.512283,70.966232 71.755821,71.062515 70.627716,71.094223 
	C69.502060,71.027191 68.748062,71.024727 67.836502,70.674179 
	C67.447800,68.551117 67.216652,66.776146 67.064423,64.562630 
	C67.078766,61.753323 67.014183,59.382557 67.023575,56.756798 
	C67.050568,56.331146 67.003586,56.160488 67.041992,55.563885 
	C67.236420,53.541821 67.345467,51.945694 67.471924,50.094616 
	C73.546326,50.094616 79.196480,49.851788 84.819138,50.141804 
	C99.543053,50.901268 110.646812,39.493549 108.224380,24.535282 
	C108.221764,16.729137 108.102486,9.379014 108.011284,1.772058 
	C108.026245,1.343483 108.013123,1.171742 108.000000,1.000000 
z"/>
<path fill="#484848" opacity="1.000000" stroke="none" 
	d="
M1.000000,108.468582 
	C5.297741,107.956879 9.600251,107.767754 13.892004,107.907944 
	C19.147964,108.079620 21.004725,110.438660 21.022736,116.453033 
	C21.041330,122.661629 19.397657,124.666122 13.981152,124.920143 
	C12.187631,125.004257 10.386840,124.933395 8.275404,124.933395 
	C8.000002,126.945610 7.764935,128.663116 7.445188,130.999344 
	C5.454167,130.720566 3.609989,130.462326 1.382906,130.102051 
	C1.000000,122.979050 1.000000,115.958107 1.000000,108.468582 
M7.815719,114.672340 
	C7.815719,116.237213 7.815719,117.802078 7.815719,119.366951 
	C8.281547,119.733170 8.747375,120.099396 9.213202,120.465622 
	C11.089201,119.313339 14.015893,118.552254 14.621083,116.926826 
	C15.856832,113.607819 13.161653,112.397446 7.815719,114.672340 
z"/>
<path fill="#4A4A4A" opacity="1.000000" stroke="none" 
	d="
M161.000000,112.600006 
	C158.852203,113.000000 156.704407,113.000000 153.867096,113.000000 
	C153.867096,119.023499 153.867096,124.730202 153.867096,130.650177 
	C151.564743,130.650177 149.952789,130.650177 147.764923,130.650177 
	C147.764923,125.033791 147.764923,119.468208 147.764923,113.551247 
	C145.495422,113.289246 143.748260,113.087547 141.585480,112.837868 
	C141.585480,111.382339 141.585480,109.874924 141.585480,107.484131 
	C147.862457,107.896133 154.027969,108.300819 160.596741,108.852753 
	C161.000000,110.066673 161.000000,111.133339 161.000000,112.600006 
z"/>
<path fill="#FCC6BF" opacity="1.000000" stroke="none" 
	d="
M107.531342,1.000000 
	C108.013123,1.171742 108.026245,1.343483 107.543991,1.786696 
	C90.360802,2.145153 73.672981,2.232138 56.733360,2.242057 
	C56.316826,2.104282 56.152100,2.043572 55.987373,1.982863 
	C55.987373,1.982863 56.008106,1.491617 56.004051,1.245808 
	C73.020897,1.000000 90.041786,1.000000 107.531342,1.000000 
z"/>
<path fill="#F9D6D8" opacity="1.000000" stroke="none" 
	d="
M115.230782,2.327470 
	C115.180000,2.108367 115.129219,1.889263 115.039215,1.335080 
	C119.356903,1.000000 123.713806,1.000000 128.535355,1.000000 
	C129.000000,1.000000 129.050858,1.476920 128.770477,1.713034 
	C128.322983,2.007025 128.155899,2.064901 127.563965,2.070711 
	C125.428802,2.053322 123.718491,2.087999 121.588409,2.028070 
	C119.189362,2.064799 117.210068,2.196135 115.230782,2.327470 
z"/>
<path fill="#EA1D28" opacity="1.000000" stroke="none" 
	d="
M66.949600,57.011795 
	C67.014183,59.382557 67.078766,61.753323 66.793045,64.805840 
	C65.958031,67.797775 65.473328,70.107964 64.988632,72.418144 
	C65.359863,72.549576 65.731087,72.681000 66.102318,72.812424 
	C66.732903,72.215706 67.363480,71.618988 67.994057,71.022270 
	C68.748062,71.024727 69.502060,71.027191 70.823776,71.313988 
	C72.262840,71.435661 73.134193,71.272987 74.005547,71.110321 
	C86.684967,71.068138 99.364395,71.025963 112.496979,71.367905 
	C112.967682,72.165161 112.985214,72.578300 113.141983,73.314148 
	C114.194244,75.767853 115.107285,77.898849 116.020325,80.029846 
	C115.080666,80.726532 114.141006,81.423218 112.678741,82.412636 
	C111.531525,83.056351 110.906921,83.407326 110.282310,83.758301 
	C110.282310,83.758301 109.853279,83.530022 109.853279,83.530022 
	C109.853279,83.530022 109.380272,83.641396 108.822144,83.761757 
	C107.552628,84.088280 106.841240,84.294441 106.129852,84.500595 
	C105.943497,84.422508 105.757141,84.344414 105.267189,83.759491 
	C103.857109,79.157585 100.622322,81.267700 98.358322,81.212402 
	C95.078857,81.132317 91.785728,81.925385 88.494408,81.959625 
	C78.007874,82.068726 67.519485,81.999268 56.847099,81.746719 
	C55.866859,81.300873 55.071335,81.107086 54.090721,80.819214 
	C53.905628,80.725128 53.494125,80.669411 53.494125,80.669411 
	C53.579113,71.803383 53.664097,62.937359 53.888977,53.371616 
	C53.980312,52.114452 53.931751,51.556999 53.942955,50.675903 
	C54.039917,49.915474 54.077106,49.478687 54.381485,48.937294 
	C54.802597,48.295864 54.956516,47.759045 55.110435,47.222221 
	C55.696472,46.702713 56.282505,46.183201 57.290443,45.316536 
	C58.089577,44.312965 58.466808,43.656548 58.844040,43.000137 
	C59.394318,42.368465 59.944592,41.736794 61.082916,40.935745 
	C62.699867,39.952171 63.728767,39.137970 64.757668,38.323769 
	C64.946045,38.274036 65.133614,38.240437 65.479599,38.464211 
	C65.638824,38.705456 66.072983,38.849113 66.266159,38.915741 
	C66.650398,38.673752 66.841469,38.365139 67.239517,37.856667 
	C67.807785,37.531517 68.169083,37.406231 68.780258,37.420868 
	C69.710518,37.273975 70.390900,36.987164 71.071281,36.700348 
	C71.454880,36.595314 71.838478,36.490276 72.505760,36.677513 
	C72.854225,37.330505 72.919006,37.691227 73.085388,38.442459 
	C74.838768,39.221806 76.477150,39.864223 78.144798,39.952202 
	C83.265907,40.222385 88.398224,40.280140 93.400940,40.417046 
	C92.272392,39.444515 90.663750,38.058266 89.055115,36.672016 
	C90.111961,36.529568 91.168808,36.387119 92.484726,36.191460 
	C92.743797,36.138248 92.827911,36.412178 92.858475,36.665726 
	C93.296753,36.673359 93.704468,36.427444 94.129608,36.132652 
	C94.147041,36.083775 94.247543,36.109673 94.563316,36.073540 
	C94.887779,35.021194 94.896461,34.004978 94.905159,32.988762 
	C94.855553,28.629772 94.805946,24.270784 94.757881,19.131496 
	C94.813118,17.889584 94.866814,17.427967 95.137062,16.924530 
	C95.619972,16.724012 95.790489,16.494228 95.991966,15.895012 
	C96.174316,14.905190 96.229866,14.213717 96.285423,13.522243 
	C95.997795,13.507421 95.710167,13.492600 95.422539,13.477779 
	C95.247704,14.356000 95.072868,15.234221 94.531876,16.070698 
	C93.443779,16.003410 92.721855,15.977867 91.999931,15.952324 
	C91.791756,15.857622 91.583580,15.762918 90.960617,15.444625 
	C90.389511,15.147739 90.240746,15.061428 90.283577,14.686559 
	C92.973839,12.284769 95.480049,10.158522 98.425270,8.018198 
	C100.910721,8.006699 102.957169,8.009276 105.001389,8.479734 
	C104.999161,15.923083 104.999161,22.898552 104.999161,29.680653 
	C106.059235,28.081495 107.083473,26.536400 108.107704,24.991304 
	C110.646812,39.493549 99.543053,50.901268 84.819138,50.141804 
	C79.196480,49.851788 73.546326,50.094616 67.471924,50.094616 
	C67.345467,51.945694 67.236420,53.541821 66.802368,55.584999 
	C66.225357,56.190617 65.973358,56.349178 65.721359,56.507736 
	C66.130775,56.675755 66.540184,56.843777 66.949600,57.011795 
z"/>
<path fill="#EA1E26" opacity="1.000000" stroke="none" 
	d="
M33.124901,80.992783 
	C33.048061,65.636101 32.971226,50.279415 32.898491,34.133263 
	C32.977936,32.898170 33.053272,32.452545 33.489182,31.917061 
	C33.677929,29.547064 33.506107,27.266928 33.334290,24.986790 
	C35.641335,20.310030 37.948380,15.633268 40.592216,11.200215 
	C40.280643,13.292407 39.632278,15.140891 38.710926,17.198824 
	C37.480545,19.519920 36.523159,21.631569 35.452263,23.993578 
	C37.822559,23.993578 39.387737,23.993578 40.968994,24.462383 
	C41.006348,43.610355 41.027622,62.289516 40.607178,80.977112 
	C37.818604,80.987953 35.471752,80.990364 33.124901,80.992783 
z"/>
<path fill="#EA242C" opacity="1.000000" stroke="none" 
	d="
M122.008171,2.122676 
	C123.718491,2.087999 125.428802,2.053322 127.674576,2.259411 
	C128.399612,2.731413 128.633743,2.901176 128.912445,3.009467 
	C128.954788,20.705421 128.997131,38.401375 128.583405,56.631779 
	C127.128242,59.372299 126.129166,61.578369 125.065033,63.928097 
	C125.065033,61.957626 125.065033,60.023048 125.065033,58.751472 
	C123.793579,58.470173 122.312050,58.481010 122.171799,58.052685 
	C121.568008,56.208588 121.062553,54.237350 121.051155,52.309277 
	C120.961830,37.196011 120.994675,22.082026 120.981056,6.605550 
	C121.317566,4.869451 121.662865,3.496064 122.008171,2.122676 
z"/>
<path fill="#4B4B4B" opacity="1.000000" stroke="none" 
	d="
M111.399666,107.991837 
	C116.109016,108.917686 117.744675,111.722130 117.945290,115.893257 
	C118.587158,129.238831 117.145195,130.821106 103.795708,130.874481 
	C101.679352,130.882935 99.562927,130.875656 97.284691,130.875656 
	C97.150475,129.531723 97.004524,128.737030 97.002220,127.941917 
	C96.983513,121.481758 96.991714,115.021530 96.991714,107.946892 
	C101.819778,107.946892 106.391747,107.946892 111.399666,107.991837 
M104.643845,113.111397 
	C103.935036,116.998398 103.226227,120.885391 102.523582,124.738586 
	C110.020477,126.034508 111.203445,125.487930 111.669945,121.222191 
	C112.407173,114.481049 111.424095,113.184868 104.643845,113.111397 
z"/>
<path fill="#4C4C4C" opacity="1.000000" stroke="none" 
	d="
M24.141069,109.330688 
	C25.974129,108.416359 27.752262,107.971924 29.957586,107.420715 
	C30.166357,110.755905 30.327471,113.329750 30.502260,116.122055 
	C33.066345,116.122055 35.325649,116.122055 37.952286,116.122055 
	C38.086182,113.506714 38.210720,111.074219 38.362034,108.118744 
	C40.157906,108.006615 41.875381,107.899376 44.034008,107.764603 
	C44.034008,115.452164 44.034008,122.819878 44.034008,130.668076 
	C42.319370,130.749573 40.587292,130.831879 38.255127,130.942719 
	C38.255127,127.806099 38.255127,125.066139 38.255127,122.114334 
	C35.422710,122.114334 33.168652,122.114334 30.453568,122.114334 
	C30.453568,124.884094 30.453568,127.485176 30.453568,130.488312 
	C28.282885,130.488312 26.562471,130.488312 24.086143,130.488312 
	C24.086143,123.660439 24.086143,116.730515 24.141069,109.330688 
z"/>
<path fill="#EA292F" opacity="1.000000" stroke="none" 
	d="
M38.983917,16.989376 
	C39.632278,15.140891 40.280643,13.292407 40.905514,11.060747 
	C40.882019,10.677571 40.898590,10.248911 41.349800,10.082831 
	C42.166035,9.532143 42.531059,9.147533 42.896088,8.762924 
	C42.896088,8.762925 42.901577,8.882999 43.263947,8.911448 
	C48.084965,8.625758 52.543617,8.311623 57.470642,8.003573 
	C71.288094,8.017198 84.637184,8.024736 97.986267,8.032274 
	C95.480049,10.158522 92.973839,12.284769 89.878052,14.554140 
	C88.009270,14.464015 86.731018,14.034680 85.450676,14.028331 
	C74.555397,13.974294 63.659565,13.969413 52.764416,14.035222 
	C51.526524,14.042700 50.291821,14.576842 48.714001,14.909384 
	C47.914394,14.968647 47.456425,14.985301 46.834496,14.839668 
	C46.130474,15.443987 45.590412,16.210592 44.783699,16.987122 
	C44.339226,17.002060 44.161407,17.007076 43.738373,17.007607 
	C43.493164,17.003120 43.002281,17.004484 42.891720,16.784878 
	C42.579018,16.290876 42.314739,16.104649 41.768257,16.110346 
	C41.277668,16.414467 41.091988,16.675249 40.662163,17.000113 
	C39.894543,17.008282 39.455910,17.012785 39.009796,17.010054 
	C39.002312,17.002819 38.983917,16.989376 38.983917,16.989376 
z"/>
<path fill="#4F4F4F" opacity="1.000000" stroke="none" 
	d="
M131.694641,107.428650 
	C133.413452,108.499878 135.477844,109.309464 135.957535,110.675514 
	C138.195023,117.047318 139.994797,123.572830 141.951096,130.043365 
	C141.569809,130.513397 141.188538,130.983429 140.807251,131.453461 
	C138.874725,130.380188 137.049637,128.787704 134.983505,128.360214 
	C132.164886,127.777046 129.071320,127.615189 126.269897,128.163345 
	C124.275604,128.553558 122.568588,130.411926 120.733360,131.615082 
	C120.241959,131.142456 119.750557,130.669846 119.259155,130.197235 
	C121.286720,123.463669 123.047470,116.628036 125.553413,110.077484 
	C126.093636,108.665337 129.320740,108.281082 131.694641,107.428650 
M132.306107,122.024590 
	C132.067795,118.931366 131.829483,115.838142 131.591171,112.744919 
	C131.036560,112.771538 130.481934,112.798157 129.927307,112.824768 
	C129.268097,115.687759 128.608871,118.550751 127.877426,121.727425 
	C129.237823,121.884804 130.341202,122.012451 132.306107,122.024590 
z"/>
<path fill="#4E4E4E" opacity="1.000000" stroke="none" 
	d="
M51.241463,115.245285 
	C52.170685,112.890732 52.573467,110.592720 53.850632,108.992630 
	C56.267799,105.964279 62.505936,107.163109 63.749111,110.902573 
	C65.829422,117.160103 67.525444,123.545403 69.479431,130.204880 
	C66.372337,131.029099 64.335861,131.862854 62.240131,128.305344 
	C61.470978,126.999718 55.016956,126.908676 54.360840,128.071640 
	C52.403069,131.541733 50.186287,131.070786 46.878849,130.470093 
	C48.326397,125.388329 49.718094,120.502625 51.241463,115.245285 
M56.238266,118.021164 
	C56.081459,119.271408 55.924656,120.521645 55.705780,122.266762 
	C57.685051,122.124413 59.159756,122.018356 61.056110,121.881966 
	C60.123550,118.442398 59.367332,115.653221 58.611115,112.864044 
	C58.258823,112.919411 57.906528,112.974770 57.554237,113.030136 
	C57.188648,114.415459 56.823063,115.800781 56.238266,118.021164 
z"/>
<path fill="#EC1424" opacity="1.000000" stroke="none" 
	d="
M120.989853,6.968261 
	C120.994675,22.082026 120.961830,37.196011 121.051155,52.309277 
	C121.062553,54.237350 121.568008,56.208588 122.171799,58.052685 
	C122.312050,58.481010 123.793579,58.470173 125.065033,58.751472 
	C125.065033,60.023048 125.065033,61.957626 125.065033,63.928097 
	C126.129166,61.578369 127.128242,59.372299 128.477325,57.090813 
	C128.797256,58.578941 128.767166,60.142487 128.583313,62.225571 
	C128.429535,62.745110 128.007950,63.001831 127.751549,62.878899 
	C127.429207,63.737247 127.363266,64.718529 127.297333,65.699814 
	C125.419952,69.040169 123.542572,72.380524 121.004463,75.869171 
	C119.537819,76.944771 118.731903,77.872093 117.925987,78.799408 
	C117.925987,78.799408 117.978561,79.113663 117.804474,79.258118 
	C117.327507,79.502144 117.176071,79.711357 117.176079,80.030228 
	C116.983421,80.033386 116.790764,80.036552 116.309204,80.034790 
	C115.107285,77.898849 114.194244,75.767853 113.483612,73.310211 
	C114.931129,72.570312 116.176231,72.157059 117.838875,71.605232 
	C116.836205,70.051895 116.173485,69.025208 115.510765,67.998528 
	C115.468704,67.554909 115.426651,67.111282 115.627762,66.217255 
	C116.027061,65.525345 116.164307,65.273552 116.626091,65.009079 
	C117.656059,64.988144 118.342621,64.969604 119.322182,64.662292 
	C119.716415,45.560001 119.817642,26.746492 120.039070,7.715032 
	C120.383278,7.237803 120.660133,7.061530 120.989853,6.968261 
z"/>
<path fill="#494949" opacity="1.000000" stroke="none" 
	d="
M75.023712,114.372650 
	C73.228058,113.529633 71.520668,113.144928 69.167236,112.614662 
	C69.107384,111.488045 69.026886,109.972794 68.929245,108.134796 
	C75.360046,108.134796 81.398361,108.134796 87.717804,108.134796 
	C87.717804,109.662094 87.717804,111.061943 87.717804,112.811920 
	C85.803459,112.993355 83.888542,113.174835 81.480972,113.403008 
	C81.480972,118.970406 81.480972,124.540451 81.480972,130.490143 
	C79.281952,130.490143 77.573158,130.490143 75.111969,130.490143 
	C75.111969,125.318588 75.111969,120.074776 75.023712,114.372650 
z"/>
<path fill="#E61F30" opacity="1.000000" stroke="none" 
	d="
M43.983585,17.012093 
	C44.161407,17.007076 44.339226,17.002060 45.052803,17.003809 
	C45.948158,17.029657 46.307758,17.048738 46.667362,17.067822 
	C46.665565,38.079609 46.663769,59.091400 46.270695,80.539673 
	C45.252316,80.988304 44.625214,81.000458 43.998390,80.542557 
	C43.993637,59.052372 43.988609,38.032230 43.983585,17.012093 
z"/>
<path fill="#EEEEEE" opacity="1.000000" stroke="none" 
	d="
M82.025848,156.244202 
	C81.117607,156.515244 80.224876,156.931519 79.298241,157.030548 
	C76.345207,157.346146 73.379562,157.543808 70.858025,157.750961 
	C70.858025,152.586700 70.858025,146.972488 70.858025,140.594620 
	C73.888741,141.087662 76.841469,141.568008 79.588814,142.605408 
	C79.866486,146.879211 80.303078,150.603149 80.874260,154.306335 
	C80.980499,154.995102 81.628090,155.600372 82.025848,156.244202 
z"/>
<path fill="#EA0C2C" opacity="1.000000" stroke="none" 
	d="
M57.031811,81.998779 
	C67.519485,81.999268 78.007874,82.068726 88.494408,81.959625 
	C91.785728,81.925385 95.078857,81.132317 98.358322,81.212402 
	C100.622322,81.267700 103.857109,79.157585 104.978928,83.665848 
	C102.581436,84.281075 100.168602,84.483116 96.920540,84.701340 
	C83.435425,84.684776 70.785553,84.652031 57.989136,84.429688 
	C57.556881,84.095764 57.270008,83.953773 56.984882,83.511398 
	C57.002468,82.805374 57.017139,82.402077 57.031811,81.998779 
z"/>
<path fill="#636363" opacity="1.000000" stroke="none" 
	d="
M28.933807,144.287247 
	C28.941225,151.456161 33.764095,147.238449 36.566025,148.479034 
	C36.911453,146.075150 37.196312,144.092758 37.481171,142.110382 
	C37.855537,142.134125 38.229904,142.157883 38.604271,142.181625 
	C38.604271,147.310074 38.604271,152.438507 38.604271,157.566940 
	C38.263954,157.634293 37.923641,157.701645 37.583324,157.768982 
	C37.283741,155.567871 36.984158,153.366760 36.648289,150.899048 
	C34.275906,150.899048 32.013100,150.899048 29.423620,150.899048 
	C29.081800,153.121368 28.731592,155.398224 28.381386,157.675079 
	C28.025869,157.642441 27.670351,157.609818 27.314835,157.577179 
	C27.314835,152.456238 27.314835,147.335297 27.314835,140.669449 
	C28.301773,142.610001 28.613533,143.223007 28.933807,144.287247 
z"/>
<path fill="#EBEBEB" opacity="1.000000" stroke="none" 
	d="
M124.538361,149.018311 
	C124.151939,147.152390 123.101410,143.830460 123.486031,143.655029 
	C126.138947,142.445023 129.063217,141.444901 131.956039,141.262604 
	C134.456696,141.105011 134.876892,143.267639 134.388046,145.499069 
	C134.156479,146.556152 134.173340,147.667679 133.539902,148.994019 
	C130.180893,149.161774 127.359627,149.090042 124.538361,149.018311 
z"/>
<path fill="#EA0E18" opacity="1.000000" stroke="none" 
	d="
M49.055637,14.866776 
	C50.291821,14.576842 51.526524,14.042700 52.764416,14.035222 
	C63.659565,13.969413 74.555397,13.974294 85.450676,14.028331 
	C86.731018,14.034680 88.009270,14.464015 89.694016,14.829683 
	C90.240746,15.061428 90.389511,15.147739 90.666016,15.268837 
	C77.223999,15.434008 63.661785,15.551374 49.652000,15.434737 
	C49.204430,15.200732 49.055637,14.866776 49.055637,14.866776 
z"/>
<path fill="#EA1F3A" opacity="1.000000" stroke="none" 
	d="
M57.002270,7.997487 
	C52.543617,8.311623 48.084965,8.625758 43.207191,8.891667 
	C45.446892,3.828155 50.482513,3.287293 55.614964,2.105251 
	C56.152100,2.043572 56.316826,2.104282 56.687328,2.566682 
	C56.938572,4.316874 56.984039,5.665374 57.017960,7.259646 
	C57.006409,7.505418 57.002270,7.997487 57.002270,7.997487 
z"/>
<path fill="#5C5C5C" opacity="1.000000" stroke="none" 
	d="
M42.881638,144.968155 
	C44.134365,139.568039 48.518841,141.924744 51.377346,142.165009 
	C52.818207,142.286148 54.109032,145.410263 55.235825,147.313736 
	C55.577641,147.891159 55.084934,148.926926 55.074661,149.753998 
	C54.977085,157.611633 52.058208,159.615875 44.534225,156.581100 
	C44.931370,155.915573 45.151867,155.759521 45.778564,155.688965 
	C48.334831,155.377441 52.144325,155.360123 52.337631,154.515335 
	C53.042679,151.434113 52.540462,148.076630 52.493210,144.823242 
	C49.723499,144.904343 46.953789,144.985443 43.858276,145.044495 
	C43.315525,145.004364 43.098583,144.986267 42.881638,144.968155 
z"/>
<path fill="#FDFBFB" opacity="1.000000" stroke="none" 
	d="
M93.999390,87.004578 
	C93.041061,87.667442 92.090805,88.892326 91.123161,88.906219 
	C81.480850,89.044670 71.835487,89.006897 62.191727,88.927589 
	C61.520344,88.922073 60.854939,88.189537 60.562263,87.398163 
	C71.958313,87.002350 82.978851,87.003464 93.999390,87.004578 
z"/>
<path fill="#686868" opacity="1.000000" stroke="none" 
	d="
M94.306168,144.388992 
	C96.995300,147.057175 99.684448,149.725342 102.597115,152.615311 
	C102.767311,149.194550 102.944138,145.640594 103.120964,142.086639 
	C103.553703,142.104721 103.986450,142.122818 104.419189,142.140915 
	C104.419189,147.295944 104.419189,152.450989 104.419189,157.606033 
	C104.074219,157.882156 103.729240,158.158279 103.384270,158.434418 
	C100.488602,154.552826 97.592934,150.671219 94.352814,146.418427 
	C94.107628,145.494476 94.206894,144.941742 94.306168,144.388992 
z"/>
<path fill="#E9272B" opacity="1.000000" stroke="none" 
	d="
M88.668518,36.522820 
	C90.663750,38.058266 92.272392,39.444515 93.400940,40.417046 
	C88.398224,40.280140 83.265907,40.222385 78.144798,39.952202 
	C76.477150,39.864223 74.838768,39.221806 73.540253,38.436142 
	C77.311722,37.495815 80.729927,36.952320 84.148140,36.408829 
	C85.526062,36.397087 86.903992,36.385353 88.668518,36.522820 
z"/>
<path fill="#686868" opacity="1.000000" stroke="none" 
	d="
M58.513756,155.465179 
	C58.475555,150.684113 58.475555,146.351318 58.475555,142.018509 
	C59.227692,142.003967 59.979828,141.989426 60.731964,141.974884 
	C60.731964,146.863449 60.731964,151.751999 60.731964,156.640564 
	C60.005299,156.398193 59.278625,156.155823 58.513756,155.465179 
z"/>
<path fill="#EDFFFF" opacity="1.000000" stroke="none" 
	d="
M94.336990,87.000870 
	C82.978851,87.003464 71.958313,87.002350 60.469193,87.002907 
	C58.368889,86.891357 56.737171,86.778130 55.303295,86.333923 
	C55.501141,86.002937 55.997559,85.996033 56.466370,85.997192 
	C70.289917,86.000359 83.644653,86.002357 96.999390,86.004356 
	C96.224457,86.335289 95.449516,86.666222 94.336990,87.000870 
z"/>
<path fill="#FCFBF6" opacity="1.000000" stroke="none" 
	d="
M97.000381,85.737061 
	C83.644653,86.002357 70.289917,86.000359 56.467285,85.752434 
	C55.999393,85.506508 56.002148,85.016884 56.196579,84.882126 
	C56.391010,84.747368 56.848000,84.624825 57.170380,84.731232 
	C57.707069,84.764847 57.921371,84.692062 58.135674,84.619278 
	C70.785553,84.652031 83.435425,84.684776 96.543655,84.826355 
	C97.001808,85.113380 97.001595,85.291573 97.000381,85.737061 
z"/>
<path fill="#636363" opacity="1.000000" stroke="none" 
	d="
M124.793137,149.319046 
	C127.359627,149.090042 130.180893,149.161774 133.399353,149.329041 
	C134.057007,151.729797 134.593918,154.059769 134.391266,156.323547 
	C134.337967,156.918930 131.995804,157.309448 130.316986,157.939560 
	C131.486771,155.545563 132.208115,154.069321 132.929459,152.593079 
	C131.554703,151.978210 130.203110,151.302612 128.798172,150.766907 
	C127.579468,150.302231 126.300346,149.996033 124.793137,149.319046 
z"/>
<path fill="#555555" opacity="1.000000" stroke="none" 
	d="
M110.735397,155.070267 
	C113.960480,156.217621 117.312706,157.733643 118.477753,152.549240 
	C116.594162,152.065659 114.881401,151.625916 113.168633,151.186172 
	C113.239449,150.817657 113.310265,150.449127 113.381081,150.080597 
	C115.427094,150.080597 117.473106,150.080597 119.521660,150.074585 
	C120.801102,157.605225 118.130089,159.560623 110.085716,156.404449 
	C110.354134,155.539200 110.544762,155.304733 110.735397,155.070267 
z"/>
<path fill="#EF4A5C" opacity="1.000000" stroke="none" 
	d="
M43.998116,81.012604 
	C44.625214,81.000458 45.252316,80.988304 46.192101,81.003281 
	C46.504784,81.030396 46.793346,80.953781 46.869278,81.296860 
	C47.009193,82.083176 47.073181,82.526398 47.137169,82.969627 
	C45.343746,83.629433 43.550323,84.289246 40.932278,84.934998 
	C37.754272,84.881081 35.400890,84.841217 33.047508,84.801353 
	C33.328793,84.390251 33.610077,83.979149 34.324921,83.272812 
	C37.185371,82.334274 39.612259,81.690956 42.031746,81.035194 
	C42.024349,81.022751 42.039936,81.029510 42.277069,81.031662 
	C42.514206,81.033806 42.988010,81.012306 43.240532,81.022903 
	C43.661411,81.026527 43.829762,81.019569 43.998116,81.012604 
z"/>
<path fill="#595959" opacity="1.000000" stroke="none" 
	d="
M82.278473,155.946320 
	C81.628090,155.600372 80.980499,154.995102 80.874260,154.306335 
	C80.303078,150.603149 79.866486,146.879211 79.699768,142.976532 
	C81.088516,144.317047 82.860252,145.751831 83.074951,147.390594 
	C83.426437,150.073410 82.765190,152.888931 82.278473,155.946320 
z"/>
<path fill="#626262" opacity="1.000000" stroke="none" 
	d="
M94.223740,144.053055 
	C94.206894,144.941742 94.107628,145.494476 93.985413,146.467102 
	C93.962463,150.445068 93.962463,154.003159 93.962463,157.561234 
	C93.531403,157.581497 93.100342,157.601746 92.669281,157.621994 
	C92.669281,152.593353 92.669281,147.564697 92.669281,142.536057 
	C92.913223,142.177841 93.157158,141.819626 93.401100,141.461395 
	C93.647842,142.213303 93.894577,142.965210 94.223740,144.053055 
z"/>
<path fill="#616161" opacity="1.000000" stroke="none" 
	d="
M42.701378,145.307831 
	C43.098583,144.986267 43.315525,145.004364 43.871914,145.439011 
	C44.455597,148.905029 44.699841,151.954514 44.582050,155.185883 
	C44.062748,155.587372 43.905476,155.806976 43.748203,156.026566 
	C43.748203,156.026566 43.407551,155.766312 43.506901,155.271179 
	C43.319679,154.545151 43.033104,154.314270 42.746532,154.083389 
	C42.671394,151.271439 42.596260,148.459473 42.701378,145.307831 
z"/>
<path fill="#F3696F" opacity="1.000000" stroke="none" 
	d="
M83.693771,36.271568 
	C80.729927,36.952320 77.311722,37.495815 73.438644,38.045631 
	C72.919006,37.691227 72.854225,37.330505 72.805969,36.695511 
	C76.294792,36.325596 79.767105,36.229950 83.693771,36.271568 
z"/>
<path fill="#EA292F" opacity="1.000000" stroke="none" 
	d="
M42.039146,81.047638 
	C39.612259,81.690956 37.185371,82.334274 34.318439,83.021500 
	C33.576855,82.581413 33.275311,82.097420 33.049332,81.303101 
	C35.471752,80.990364 37.818604,80.987953 40.854748,80.993484 
	C41.544041,81.001434 42.039146,81.047638 42.039146,81.047638 
z"/>
<path fill="#EA292F" opacity="1.000000" stroke="none" 
	d="
M33.165901,25.361217 
	C33.506107,27.266928 33.677929,29.547064 33.399010,31.546959 
	C32.875542,30.511032 32.802822,29.755348 32.730103,28.999666 
	C32.819237,27.911659 32.908375,26.823652 33.165901,25.361217 
z"/>
<path fill="#FDFBFB" opacity="1.000000" stroke="none" 
	d="
M68.530380,37.280945 
	C68.169083,37.406231 67.807785,37.531517 66.989510,38.042557 
	C66.379349,38.568577 66.226166,38.708843 66.072983,38.849113 
	C66.072983,38.849113 65.638824,38.705456 65.568298,38.497456 
	C66.089172,36.666416 66.680573,35.043377 67.680771,32.298424 
	C68.464897,34.203781 68.784492,34.980370 69.038452,36.262909 
	C68.742348,36.867783 68.594864,37.038479 68.530380,37.280945 
z"/>
<path fill="#FDFBFB" opacity="1.000000" stroke="none" 
	d="
M53.883190,50.999550 
	C53.931751,51.556999 53.980312,52.114452 53.871212,52.912621 
	C51.231400,52.839481 48.247715,52.833149 51.629608,49.075348 
	C52.000000,49.000000 52.001068,49.001068 52.038170,49.311638 
	C52.677910,50.081322 53.280552,50.540436 53.883190,50.999550 
z"/>
<path fill="#FDFBFB" opacity="1.000000" stroke="none" 
	d="
M32.398727,29.087460 
	C32.802822,29.755348 32.875542,30.511032 33.038437,31.636818 
	C33.053272,32.452545 32.977936,32.898170 32.812874,33.671787 
	C32.504547,32.391602 32.285950,30.783426 32.398727,29.087460 
z"/>
<path fill="#FDFBFB" opacity="1.000000" stroke="none" 
	d="
M94.920502,16.966351 
	C94.866814,17.427967 94.813118,17.889584 94.645561,18.680742 
	C93.690407,18.222263 92.849113,17.434244 92.003876,16.299274 
	C92.721855,15.977867 93.443779,16.003410 94.449997,16.088398 
	C94.734299,16.147842 94.741287,16.315210 94.702469,16.501011 
	C94.663658,16.686811 94.920502,16.966351 94.920502,16.966351 
z"/>
<path fill="#FDFBFB" opacity="1.000000" stroke="none" 
	d="
M54.908657,46.933609 
	C54.956516,47.759045 54.802597,48.295864 54.029396,48.925369 
	C52.940434,49.012390 52.470749,49.006729 52.001068,49.001068 
	C52.001068,49.001068 52.000000,49.000000 51.999474,48.999466 
	C52.901588,48.214283 53.804234,47.429638 54.908657,46.933609 
z"/>
<path fill="#FDFBFB" opacity="1.000000" stroke="none" 
	d="
M33.269730,85.124146 
	C35.400890,84.841217 37.754272,84.881081 40.539391,85.013580 
	C38.478065,85.219788 35.985012,85.333366 33.269730,85.124146 
z"/>
<path fill="#EA1D28" opacity="1.000000" stroke="none" 
	d="
M118.144211,78.834579 
	C118.731903,77.872093 119.537819,76.944771 120.709244,76.022644 
	C120.809128,76.476379 120.543488,76.924911 119.863121,77.673645 
	C119.232208,78.293884 119.016029,78.613930 118.799835,78.933975 
	C118.799835,78.933968 118.362442,78.869743 118.144211,78.834579 
z"/>
<path fill="#FDFBFB" opacity="1.000000" stroke="none" 
	d="
M64.380661,38.242119 
	C63.728767,39.137970 62.699867,39.952171 61.334057,40.744034 
	C61.999313,39.867954 63.001484,39.014210 64.380661,38.242119 
z"/>
<path fill="#F3696F" opacity="1.000000" stroke="none" 
	d="
M94.709412,33.188583 
	C94.896461,34.004978 94.887779,35.021194 94.510254,35.794216 
	C94.101242,35.365875 94.061081,35.180733 94.020920,34.995590 
	C94.185173,34.459862 94.349426,33.924129 94.709412,33.188583 
z"/>
<path fill="#FDFBFB" opacity="1.000000" stroke="none" 
	d="
M58.533134,43.054787 
	C58.466808,43.656548 58.089577,44.312965 57.371689,45.026794 
	C57.428097,44.425953 57.825165,43.767696 58.533134,43.054787 
z"/>
<path fill="#EF4A5C" opacity="1.000000" stroke="none" 
	d="
M46.812660,16.851803 
	C46.307758,17.048738 45.948158,17.029657 45.319450,16.993885 
	C45.590412,16.210592 46.130474,15.443987 46.840149,15.121317 
	C47.027912,15.752189 47.046062,15.939124 47.064213,16.126060 
	C47.028797,16.295969 46.993382,16.465876 46.812660,16.851803 
z"/>
<path fill="#555555" opacity="1.000000" stroke="none" 
	d="
M109.849442,156.100510 
	C109.045647,154.949448 108.555901,153.471542 108.066154,151.993637 
	C108.484505,151.853088 108.902847,151.712555 109.321198,151.572021 
	C109.704300,152.491699 110.087402,153.411362 110.602951,154.700653 
	C110.544762,155.304733 110.354134,155.539200 109.849442,156.100510 
z"/>
<path fill="#F99595" opacity="1.000000" stroke="none" 
	d="
M53.331108,81.056732 
	C53.494125,80.669411 53.905628,80.725128 54.023548,81.178558 
	C54.151905,82.356979 54.162342,83.081985 54.119713,84.030731 
	C54.066639,84.254471 53.965698,84.703163 54.016518,84.832924 
	C54.067337,84.962685 54.106888,85.238571 54.106888,85.238571 
	C53.793957,83.973732 53.481026,82.708893 53.331108,81.056732 
z"/>
<path fill="#555555" opacity="1.000000" stroke="none" 
	d="
M110.077850,146.178818 
	C109.421364,146.527390 108.859604,146.396774 108.297844,146.266144 
	C108.619041,145.582199 108.940239,144.898254 109.261436,144.214310 
	C109.565147,144.709412 109.868851,145.204529 110.077850,146.178818 
z"/>
<path fill="#F3696F" opacity="1.000000" stroke="none" 
	d="
M68.780258,37.420868 
	C68.594864,37.038479 68.742348,36.867783 69.093689,36.645470 
	C69.639862,36.492062 70.065163,36.462040 70.780876,36.566185 
	C70.390900,36.987164 69.710518,37.273975 68.780258,37.420868 
z"/>
<path fill="#EA242C" opacity="1.000000" stroke="none" 
	d="
M127.556427,65.441498 
	C127.363266,64.718529 127.429207,63.737247 127.872498,63.101242 
	C128.331329,63.594204 128.412811,63.741886 128.494308,63.889572 
	C128.268051,64.320770 128.041794,64.751968 127.556427,65.441498 
z"/>
<path fill="#FDFBFB" opacity="1.000000" stroke="none" 
	d="
M106.369881,84.651459 
	C106.841240,84.294441 107.552628,84.088280 108.636978,83.918030 
	C108.209938,84.236732 107.409920,84.519524 106.369881,84.651459 
z"/>
<path fill="#FDFBFB" opacity="1.000000" stroke="none" 
	d="
M108.251694,87.641228 
	C108.007721,87.626526 107.874741,87.495209 107.741760,87.363892 
	C107.948730,87.417458 108.155708,87.471031 108.251694,87.641228 
z"/>
<path fill="#EA1F3A" opacity="1.000000" stroke="none" 
	d="
M42.618095,8.810675 
	C42.531059,9.147533 42.166035,9.532143 41.518707,9.950632 
	C41.604305,9.609151 41.972202,9.233788 42.618095,8.810675 
z"/>
<path fill="#FDFBFB" opacity="1.000000" stroke="none" 
	d="
M56.002148,85.016884 
	C56.002148,85.016884 55.999393,85.506508 55.998474,85.751266 
	C55.997559,85.996033 55.501141,86.002937 55.252991,86.006592 
	C54.732735,85.937622 54.500980,85.798050 54.208229,85.415047 
	C54.106888,85.238571 54.067337,84.962685 54.298279,84.916000 
	C54.715199,84.808319 54.901180,84.747322 55.320229,84.757011 
	C55.553295,84.827690 56.002148,85.016884 56.002148,85.016884 
z"/>
<path fill="#FDFBFB" opacity="1.000000" stroke="none" 
	d="
M110.680984,83.807083 
	C110.906921,83.407326 111.531525,83.056351 112.528366,82.679344 
	C112.293625,83.054161 111.686638,83.455009 110.680984,83.807083 
z"/>
<path fill="#FDFBFB" opacity="1.000000" stroke="none" 
	d="
M47.338799,82.814651 
	C47.073181,82.526398 47.009193,82.083176 47.018032,81.309341 
	C47.240711,81.539047 47.390572,82.099358 47.338799,82.814651 
z"/>
<path fill="#F3696F" opacity="1.000000" stroke="none" 
	d="
M47.423779,16.043989 
	C47.046062,15.939124 47.027912,15.752189 47.004108,15.283604 
	C47.456425,14.985301 47.914394,14.968647 48.714001,14.909384 
	C49.055637,14.866776 49.204430,15.200732 49.199070,15.383415 
	C48.723587,15.698037 48.253468,15.829977 47.423779,16.043989 
z"/>
<path fill="#5C5C5C" opacity="1.000000" stroke="none" 
	d="
M43.788834,156.068909 
	C43.905476,155.806976 44.062748,155.587372 44.735634,155.302521 
	C45.251255,155.237274 45.372364,155.603485 45.372364,155.603485 
	C45.151867,155.759521 44.931370,155.915573 44.320599,156.198746 
	C43.930328,156.325851 43.829464,156.111252 43.788834,156.068909 
z"/>
<path fill="#EB454C" opacity="1.000000" stroke="none" 
	d="
M128.992432,2.751429 
	C128.633743,2.901176 128.399612,2.731413 128.099426,2.311478 
	C128.155899,2.064901 128.322983,2.007025 128.755310,1.952366 
	C129.037827,2.134853 129.055115,2.314122 128.992432,2.751429 
z"/>
<path fill="#5C5C5C" opacity="1.000000" stroke="none" 
	d="
M42.750244,154.354553 
	C43.033104,154.314270 43.319679,154.545151 43.516319,155.057037 
	C43.202240,155.100586 42.978096,154.863159 42.750244,154.354553 
z"/>
<path fill="#FDFBFB" opacity="1.000000" stroke="none" 
	d="
M117.336868,79.954819 
	C117.176071,79.711357 117.327507,79.502144 117.836090,79.414261 
	C117.883316,79.604591 117.701942,79.755745 117.336868,79.954819 
z"/>
<path fill="#FDFBFB" opacity="1.000000" stroke="none" 
	d="
M93.798088,35.104019 
	C94.061081,35.180733 94.101242,35.365875 94.194473,35.830345 
	C94.247543,36.109673 94.147041,36.083775 93.793098,36.104290 
	C93.235405,36.220600 93.031654,36.316391 92.827911,36.412178 
	C92.827911,36.412178 92.743797,36.138248 92.868980,36.068726 
	C93.103111,35.674351 93.296806,35.412102 93.798088,35.104019 
z"/>
<path fill="#FDFBFB" opacity="1.000000" stroke="none" 
	d="
M50.530777,56.547958 
	C50.477318,56.579426 50.584240,56.516495 50.530777,56.547958 
z"/>
<path fill="#FDFBFB" opacity="1.000000" stroke="none" 
	d="
M128.627472,63.679611 
	C128.412811,63.741886 128.331329,63.594204 128.128906,63.224174 
	C128.007950,63.001831 128.429535,62.745110 128.639191,62.613281 
	C128.819458,62.810852 128.790054,63.140251 128.627472,63.679611 
z"/>
<path fill="#FDFBFB" opacity="1.000000" stroke="none" 
	d="
M128.530762,73.547997 
	C128.477310,73.579475 128.584229,73.516518 128.530762,73.547997 
z"/>
<path fill="#FDFBFB" opacity="1.000000" stroke="none" 
	d="
M119.069878,78.840546 
	C119.016029,78.613930 119.232208,78.293884 119.741150,77.917297 
	C119.802582,78.156212 119.571251,78.451668 119.069878,78.840546 
z"/>
<path fill="#EA292F" opacity="1.000000" stroke="none" 
	d="
M57.029503,7.013875 
	C56.984039,5.665374 56.938572,4.316874 56.939137,2.643749 
	C73.672981,2.232138 90.360802,2.145153 107.515915,2.043529 
	C108.102486,9.379014 108.221764,16.729137 108.224380,24.535282 
	C107.083473,26.536400 106.059235,28.081495 104.999161,29.680653 
	C104.999161,22.898552 104.999161,15.923083 105.356766,8.413824 
	C106.155716,6.481229 106.597046,5.082425 106.680283,4.818592 
	C104.884888,5.629221 103.371300,6.895750 101.844849,6.911430 
	C86.907623,7.064871 71.968262,7.009715 57.029503,7.013875 
z"/>
<path fill="#E72029" opacity="1.000000" stroke="none" 
	d="
M119.029175,64.951065 
	C118.342621,64.969604 117.656059,64.988144 116.420502,64.962494 
	C115.871498,64.918297 115.453964,64.922729 115.453964,64.922729 
	C115.411499,46.282856 115.369034,27.642984 115.730499,8.538341 
	C116.749954,8.042249 117.365486,8.010928 117.988144,8.399556 
	C118.325150,10.874110 118.655029,12.928717 118.989807,15.445253 
	C118.991478,19.610405 118.988243,23.313627 118.693192,27.312191 
	C118.273155,38.673195 118.126328,49.738739 118.059364,60.804775 
	C118.054985,61.528965 118.662247,62.256855 118.990356,63.311405 
	C119.006859,64.076881 119.018021,64.513969 119.029175,64.951065 
z"/>
<path fill="#EB454C" opacity="1.000000" stroke="none" 
	d="
M117.981010,7.979609 
	C117.365486,8.010928 116.749954,8.042249 115.826355,8.086059 
	C115.418686,6.449653 115.319092,4.800757 115.225143,2.739666 
	C117.210068,2.196135 119.189362,2.064799 121.588409,2.028070 
	C121.662865,3.496064 121.317566,4.869451 120.981056,6.605550 
	C120.660133,7.061530 120.383278,7.237803 119.823532,7.722660 
	C119.487793,7.948238 119.054749,7.963397 118.786224,7.961582 
	C118.338806,7.966381 118.159912,7.972995 117.981010,7.979609 
z"/>
<path fill="#EB454C" opacity="1.000000" stroke="none" 
	d="
M67.836502,70.674179 
	C67.363480,71.618988 66.732903,72.215706 66.102318,72.812424 
	C65.731087,72.681000 65.359863,72.549576 64.988632,72.418144 
	C65.473328,70.107964 65.958031,67.797775 66.714119,65.244385 
	C67.216652,66.776146 67.447800,68.551117 67.836502,70.674179 
z"/>
<path fill="#EB454C" opacity="1.000000" stroke="none" 
	d="
M115.363892,68.340401 
	C116.173485,69.025208 116.836205,70.051895 117.838875,71.605232 
	C116.176231,72.157059 114.931129,72.570312 113.344391,72.987503 
	C112.985214,72.578300 112.967682,72.165161 112.958351,71.441940 
	C113.716713,70.315323 114.466866,69.498802 115.363892,68.340401 
z"/>
<path fill="#EB454C" opacity="1.000000" stroke="none" 
	d="
M73.637146,70.990128 
	C73.134193,71.272987 72.262840,71.435661 71.195419,71.378563 
	C71.755821,71.062515 72.512283,70.966232 73.637146,70.990128 
z"/>
<path fill="#EB454C" opacity="1.000000" stroke="none" 
	d="
M67.023575,56.756798 
	C66.540184,56.843777 66.130775,56.675755 65.721359,56.507736 
	C65.973358,56.349178 66.225357,56.190617 66.716980,56.010941 
	C67.003586,56.160488 67.050568,56.331146 67.023575,56.756798 
z"/>
<path fill="#EB454C" opacity="1.000000" stroke="none" 
	d="
M115.370598,65.200241 
	C115.453964,64.922729 115.871498,64.918297 116.077087,64.964882 
	C116.164307,65.273552 116.027061,65.525345 115.694366,65.888138 
	C115.440941,65.832199 115.364082,65.654968 115.370598,65.200241 
z"/>
<path fill="#E5E5E5" opacity="1.000000" stroke="none" 
	d="
M7.916003,114.246262 
	C13.161653,112.397446 15.856832,113.607819 14.621083,116.926826 
	C14.015893,118.552254 11.089201,119.313339 9.213202,120.465622 
	C8.747375,120.099396 8.281547,119.733170 7.815719,119.366951 
	C7.815719,117.802078 7.815719,116.237213 7.916003,114.246262 
z"/>
<path fill="#ED0111" opacity="1.000000" stroke="none" 
	d="
M57.017956,7.259646 
	C71.968262,7.009715 86.907623,7.064871 101.844849,6.911430 
	C103.371300,6.895750 104.884888,5.629221 106.680283,4.818592 
	C106.597046,5.082425 106.155716,6.481229 105.358994,7.945944 
	C102.957169,8.009276 100.910721,8.006699 98.425270,8.018198 
	C84.637184,8.024736 71.288094,8.017198 57.470642,8.003573 
	C57.002270,7.997487 57.006409,7.505418 57.017956,7.259646 
z"/>
<path fill="#E83033" opacity="1.000000" stroke="none" 
	d="
M56.196579,84.882126 
	C56.002148,85.016884 55.553295,84.827690 55.223099,84.561615 
	C54.676800,84.097412 54.436760,83.934555 54.172783,83.806984 
	C54.162342,83.081985 54.151905,82.356979 54.208641,81.272644 
	C55.071335,81.107086 55.866859,81.300873 56.847099,81.746719 
	C57.017139,82.402077 57.002468,82.805374 56.935143,83.711769 
	C56.882488,84.214867 56.848000,84.624825 56.848000,84.624825 
	C56.848000,84.624825 56.391010,84.747368 56.196579,84.882126 
z"/>
<path fill="#EA292F" opacity="1.000000" stroke="none" 
	d="
M94.816170,16.130142 
	C95.072868,15.234221 95.247704,14.356000 95.422539,13.477779 
	C95.710167,13.492600 95.997795,13.507421 96.285423,13.522243 
	C96.229866,14.213717 96.174316,14.905190 95.705841,15.874555 
	C95.109032,16.206699 94.925156,16.260956 94.741287,16.315210 
	C94.741287,16.315210 94.734299,16.147842 94.816170,16.130142 
z"/>
<path fill="#FCFCFC" opacity="1.000000" stroke="none" 
	d="
M52.038170,49.311638 
	C52.470749,49.006729 52.940434,49.012390 53.762207,49.029976 
	C54.077106,49.478687 54.039917,49.915474 53.942955,50.675903 
	C53.280552,50.540436 52.677910,50.081322 52.038170,49.311638 
z"/>
<path fill="#F3696F" opacity="1.000000" stroke="none" 
	d="
M92.858475,36.665726 
	C93.031654,36.316391 93.235405,36.220600 93.775665,36.153168 
	C93.704468,36.427444 93.296753,36.673359 92.858475,36.665726 
z"/>
<path fill="#F3696F" opacity="1.000000" stroke="none" 
	d="
M94.702469,16.501011 
	C94.925156,16.260956 95.109032,16.206699 95.579041,16.172901 
	C95.790489,16.494228 95.619972,16.724012 95.137062,16.924530 
	C94.920502,16.966351 94.663658,16.686811 94.702469,16.501011 
z"/>
<path fill="#F3696F" opacity="1.000000" stroke="none" 
	d="
M66.266159,38.915741 
	C66.226166,38.708843 66.379349,38.568577 66.782539,38.242416 
	C66.841469,38.365139 66.650398,38.673752 66.266159,38.915741 
z"/>
<path fill="#F01802" opacity="1.000000" stroke="none" 
	d="
M42.031746,81.035194 
	C42.039146,81.047638 41.544041,81.001434 41.296471,80.985062 
	C41.027622,62.289516 41.006348,43.610355 40.977539,24.133156 
	C40.962124,22.896057 40.954243,22.456997 40.964455,21.599468 
	C40.985416,19.786152 40.988285,18.391298 40.991150,16.996447 
	C41.091988,16.675249 41.277668,16.414467 41.771873,16.578300 
	C42.010345,38.304836 42.025139,59.667175 42.039932,81.029510 
	C42.039936,81.029510 42.024349,81.022751 42.031746,81.035194 
z"/>
<path fill="#EA292F" opacity="1.000000" stroke="none" 
	d="
M40.946365,22.017935 
	C40.954243,22.456997 40.962124,22.896057 40.961460,23.664349 
	C39.387737,23.993578 37.822559,23.993578 35.452263,23.993578 
	C36.523159,21.631569 37.480545,19.519920 38.710926,17.198824 
	C38.983917,16.989376 39.002312,17.002819 39.004353,17.402189 
	C39.653053,19.207018 40.299709,20.612476 40.946365,22.017935 
z"/>
<path fill="#EEEEEE" opacity="1.000000" stroke="none" 
	d="
M105.080330,113.110306 
	C111.424095,113.184868 112.407173,114.481049 111.669945,121.222191 
	C111.203445,125.487930 110.020477,126.034508 102.523582,124.738586 
	C103.226227,120.885391 103.935036,116.998398 105.080330,113.110306 
z"/>
<path fill="#E72E28" opacity="1.000000" stroke="none" 
	d="
M42.277069,81.031662 
	C42.025139,59.667175 42.010345,38.304836 41.991936,16.474545 
	C42.314739,16.104649 42.579018,16.290876 42.891190,17.253025 
	C42.996815,38.964622 42.992413,59.988464 42.988010,81.012306 
	C42.988010,81.012306 42.514206,81.033806 42.277069,81.031662 
z"/>
<path fill="#EB181D" opacity="1.000000" stroke="none" 
	d="
M43.240532,81.022903 
	C42.992413,59.988464 42.996815,38.964622 43.001747,17.472633 
	C43.002281,17.004484 43.493164,17.003120 43.738373,17.007607 
	C43.988609,38.032230 43.993637,59.052372 43.998390,80.542557 
	C43.829762,81.019569 43.661411,81.026527 43.240532,81.022903 
z"/>
<path fill="#EA1E26" opacity="1.000000" stroke="none" 
	d="
M40.964458,21.599468 
	C40.299709,20.612476 39.653053,19.207018 39.011837,17.409424 
	C39.455910,17.012785 39.894543,17.008282 40.662163,17.000113 
	C40.988285,18.391298 40.985416,19.786152 40.964458,21.599468 
z"/>
<path fill="#E7E7E7" opacity="1.000000" stroke="none" 
	d="
M131.875351,122.082336 
	C130.341202,122.012451 129.237823,121.884804 127.877426,121.727425 
	C128.608871,118.550751 129.268097,115.687759 129.927307,112.824768 
	C130.481934,112.798157 131.036560,112.771538 131.591171,112.744919 
	C131.829483,115.838142 132.067795,118.931366 131.875351,122.082336 
z"/>
<path fill="#EAEAEA" opacity="1.000000" stroke="none" 
	d="
M56.347870,117.603638 
	C56.823063,115.800781 57.188648,114.415459 57.554237,113.030136 
	C57.906528,112.974770 58.258823,112.919411 58.611115,112.864044 
	C59.367332,115.653221 60.123550,118.442398 61.056110,121.881966 
	C59.159756,122.018356 57.685051,122.124413 55.705780,122.266762 
	C55.924656,120.521645 56.081459,119.271408 56.347870,117.603638 
z"/>
<path fill="#E82E33" opacity="1.000000" stroke="none" 
	d="
M119.054749,7.963397 
	C119.054749,7.963397 119.487793,7.948238 119.703331,7.940610 
	C119.817642,26.746492 119.716415,45.560001 119.322182,64.662292 
	C119.018021,64.513969 119.006859,64.076881 118.993073,62.844822 
	C118.988632,50.372189 118.986824,38.694519 118.985016,27.016850 
	C118.988243,23.313627 118.991478,19.610405 118.992538,15.008530 
	C119.011826,12.061049 119.033287,10.012223 119.054749,7.963397 
z"/>
<path fill="#F1767B" opacity="1.000000" stroke="none" 
	d="
M57.170380,84.731232 
	C56.848000,84.624825 56.882488,84.214867 56.932228,84.014496 
	C57.270008,83.953773 57.556881,84.095764 57.989136,84.429688 
	C57.921371,84.692062 57.707069,84.764847 57.170380,84.731232 
z"/>
<path fill="#F6F6F6" opacity="1.000000" stroke="none" 
	d="
M45.778564,155.688965 
	C45.372364,155.603485 45.251255,155.237274 45.097672,155.120636 
	C44.699841,151.954514 44.455597,148.905029 44.197716,145.461029 
	C46.953789,144.985443 49.723499,144.904343 52.493210,144.823242 
	C52.540462,148.076630 53.042679,151.434113 52.337631,154.515335 
	C52.144325,155.360123 48.334831,155.377441 45.778564,155.688965 
z"/>
<path fill="#F1767B" opacity="1.000000" stroke="none" 
	d="
M54.119713,84.030731 
	C54.436760,83.934555 54.676800,84.097412 54.990032,84.490936 
	C54.901180,84.747322 54.715199,84.808319 54.247459,84.786240 
	C53.965698,84.703163 54.066639,84.254471 54.119713,84.030731 
z"/>
<path fill="#EC1424" opacity="1.000000" stroke="none" 
	d="
M118.693192,27.312191 
	C118.986824,38.694519 118.988632,50.372189 118.987717,62.516441 
	C118.662247,62.256855 118.054985,61.528965 118.059364,60.804775 
	C118.126328,49.738739 118.273155,38.673195 118.693192,27.312191 
z"/>
<path fill="#EC1424" opacity="1.000000" stroke="none" 
	d="
M118.786224,7.961582 
	C119.033287,10.012223 119.011826,12.061049 118.987640,14.546600 
	C118.655029,12.928717 118.325150,10.874110 117.988144,8.399556 
	C118.159912,7.972995 118.338806,7.966381 118.786224,7.961582 
z"/>
</svg>